{"title":"Pacific Rim 2013 CAMRiP NEW AUDIO AAC x264-SSDD [PublicHash]","uid":8720198,"size":526509461,"categoryP":"video","categoryS":"movies","magnet":"?xt=urn:btih:517242878caec3c97bef79e6989b2a74b8356fbc&amp;dn=Pacific+Rim+2013+CAMRiP+NEW+AUDIO+AAC+x264-SSDD+%5BPublicHash%5D&amp;tr=udp%3A%2F%2Ftracker.openbittorrent.com%3A80&amp;tr=udp%3A%2F%2Fopen.demonii.com%3A1337&amp;tr=udp%3A%2F%2Ftracker.coppersurfer.tk%3A6969&amp;tr=udp%3A%2F%2Fexodus.desync.com%3A6969","seeders":1,"leechers":0,"uploader":"R0thschild","files":3,"time":1374366039,"description":"              ***********************************************\n\n                PublicHash - Largest Bittorrent Community\n      \n                       &lt;a href=&quot; http://publichash.com/&quot; rel=&quot;nofollow&quot; target=&quot;_NEW&quot;&gt; http://publichash.com/&lt;/a&gt;\n\n          Crystal Clean files - Fast Speed! No Virus! No Fake! Enjoy!\n    \n              ***********************************************\nGeneral\nComplete name                            : Pacific Rim 2013 CAMRiP NEW AUDIO AAC x264-SSDD.mp4\nFormat                                         : MPEG-4\nFormat profile                              : Base Media\nCodec ID                                      : isom\nFile size                                        : 502 MiB\nDuration                                       : 2h 2mn\nOverall bit rate mode                   : Variable\nOverall bit rate                             : 574 Kbps\nEncoded date                               : UTC 2013-07-21 00:29:41\nTagged date                                 : UTC 2013-07-21 00:29:41\n\nVideo\nID                                                  : 1\nFormat                                          : AVC\nFormat/Info                                  : Advanced Video Codec\nFormat profile                               : &lt;a class=&quot;__cf_email__&quot; href=&quot;/cdn-cgi/l/email-protection&quot; data-cfemail=&quot;3f775658577f730c110f&quot;&gt;[email&amp;#160;protected]&lt;/a&gt;&lt;script cf-hash='f9e31' type=&quot;text/javascript&quot;&gt;\n/* &lt;![CDATA[ */!function(){try{var t=&quot;currentScript&quot;in document?document.currentScript:function(){for(var t=document.getElementsByTagName(&quot;script&quot;),e=t.length;e--;)if(t[e].getAttribute(&quot;cf-hash&quot;))return t[e]}();if(t&amp;&amp;t.previousSibling){var e,r,n,i,c=t.previousSibling,a=c.getAttribute(&quot;data-cfemail&quot;);if(a){for(e=&quot;&quot;,r=parseInt(a.substr(0,2),16),n=2;a.length-n;n+=2)i=parseInt(a.substr(n,2),16)^r,e+=String.fromCharCode(i);e=document.createTextNode(e),c.parentNode.replaceChild(e,c)}}}catch(u){}}();/* ]]&gt; */&lt;/script&gt;\nFormat settings, CABAC               : Yes\nFormat settings, ReFrames          : 4 frames\nCodec ID                                       : avc1\nCodec ID/Info                               : Advanced Video Coding\nDuration                                        : 2h 2mn\nBit rate                                          : 522 Kbps\nMaximum bit rate                          : 1 377 Kbps\nWidth                                            : 720 pixels\nHeight                                           : 384 pixels\nDisplay aspect ratio                      : 1.85:1\nFrame rate mode                          : Constant\nFrame rate                                   : 29.384 fps\nColor space                                  : YUV\nChroma subsampling                    : 4:2:0\nBit depth                                      : 8 bits\nScan type                                    : Progressive\nBits/(Pixel*Frame)                       : 0.064\nStream size                                  : 457 MiB (91%)\nTitle                                    : mkv.264#trackID=1:fps=&lt;a class=&quot;__cf_email__&quot; href=&quot;/cdn-cgi/l/email-protection&quot; data-cfemail=&quot;47757e69747f73070017060477697269766a0302116a35223173757f74&quot;&gt;[email&amp;#160;protected]&lt;/a&gt;&lt;script cf-hash='f9e31' type=&quot;text/javascript&quot;&gt;\n/* &lt;![CDATA[ */!function(){try{var t=&quot;currentScript&quot;in document?document.currentScript:function(){for(var t=document.getElementsByTagName(&quot;script&quot;),e=t.length;e--;)if(t[e].getAttribute(&quot;cf-hash&quot;))return t[e]}();if(t&amp;&amp;t.previousSibling){var e,r,n,i,c=t.previousSibling,a=c.getAttribute(&quot;data-cfemail&quot;);if(a){for(e=&quot;&quot;,r=parseInt(a.substr(0,2),16),n=2;a.length-n;n+=2)i=parseInt(a.substr(n,2),16)^r,e+=String.fromCharCode(i);e=document.createTextNode(e),c.parentNode.replaceChild(e,c)}}}catch(u){}}();/* ]]&gt; */&lt;/script&gt;\nWriting library                          : x264 core 133 r2334 a3ac64b\nEncoding settings                        : cabac=1 / ref=1 / deblock=1:-1:-1 / analyse=0x3:0x3 \n/ me=dia / subme=1 / psy=1 / psy_rd=1.00:0.00 / mixed_ref=0 / me_range=16 / chroma_me=1 \n/ trellis=0 / 8x8dct=1 / cqm=0 / deadzone=21,11 / fast_pskip=1 / chroma_qp_offset=0 \n/ threads=1 / lookahead_threads=1 / sliced_threads=0 / nr=0 / decimate=1 / interlaced=0 \n/ bluray_compat=0 / constrained_intra=0 / bframes=3 / b_pyramid=2 / b_adapt=1 / b_bias=0 \n/ direct=1 / weightb=1 / open_gop=0 / weightp=1 / keyint=294 / keyint_min=29 / scenecut=40 \n/ intra_refresh=0 / rc=2pass / mbtree=0 / bitrate=522 / ratetol=1.0 / qcomp=0.60 / qpmin=0 \n/ qpmax=69 / qpstep=4 / cplxblur=20.0 / qblur=0.5 / ip_ratio=1.40 / pb_ratio=1.30 / aq=1:1.00\nEncoded date                             : UTC 2013-07-21 00:29:41\nTagged date                              : UTC 2013-07-21 00:31:04\n\nAudio\nID                                       : 2\nFormat                                   : AAC\nFormat/Info                              : Advanced Audio Codec\nFormat profile                           : HE-AAC / LC\nCodec ID                                 : 40\nDuration                                 : 2h 2mn\nBit rate mode                            : Variable\nBit rate                                 : 48.0 Kbps\nMaximum bit rate                         : 52.5 Kbps\nChannel(s)                               : 2 channels\nChannel positions                        : Front: L R\nSampling rate                            : 48.0 KHz / 24.0 KHz\nCompression mode                         : Lossy\nStream size                              : 42.0 MiB (8%)\nEncoded date                             : UTC 2013-07-20 23:23:31\nTagged date                              : UTC 2013-07-21 00:31:04\n\nIMDB: &lt;a href=&quot; http://www.imdb.com/title/tt1663662/&quot; rel=&quot;nofollow&quot; target=&quot;_NEW&quot;&gt; http://www.imdb.com/title/tt1663662/&lt;/a&gt;\n\nGallery: &lt;a href=&quot;\nhttp://imgsure.com/?p=380138&quot; rel=&quot;nofollow&quot; target=&quot;_NEW&quot;&gt;\nhttp://imgsure.com/?p=380138&lt;/a&gt;","torrent":{"xt":"urn:btih:517242878caec3c97bef79e6989b2a74b8356fbc","amp;dn":"Pacific+Rim+2013+CAMRiP+NEW+AUDIO+AAC+x264-SSDD+%5BPublicHash%5D","amp;tr":["udp%3A%2F%2Ftracker.openbittorrent.com%3A80","udp%3A%2F%2Fopen.demonii.com%3A1337","udp%3A%2F%2Ftracker.coppersurfer.tk%3A6969","udp%3A%2F%2Fexodus.desync.com%3A6969"],"infoHash":"517242878caec3c97bef79e6989b2a74b8356fbc","infoHashBuffer":{"type":"Buffer","data":[81,114,66,135,140,174,195,201,123,239,121,230,152,155,42,116,184,53,111,188]},"announce":[],"urlList":[]}}